<svg viewBox="0 0 102.1480712890625 100.9267578125" version="1.1" xmlns="http://www.w3.org/2000/svg" class=" glyph-box"
     height="20" width="20" fill="white">
    <g transform="matrix(1 0 0 1 -7.470952148437391 85.693359375)">
        <path d="M59.1797 15.1855C86.7676 15.1855 109.619-7.61719 109.619-35.2539C109.619-62.8418 86.7676-85.6934 59.1309-85.6934C31.543-85.6934 8.74023-62.8418 8.74023-35.2539C8.74023-7.61719 31.5918 15.1855 59.1797 15.1855ZM59.1797 5.27344C36.7188 5.27344 18.7012-12.793 18.7012-35.2539C18.7012-57.7148 36.6699-75.7324 59.1309-75.7324C81.5918-75.7324 99.6582-57.7148 99.707-35.2539C99.707-12.793 81.6406 5.27344 59.1797 5.27344ZM37.793-35.2051C37.793-32.5684 39.6973-30.7129 42.4316-30.7129L54.5898-30.7129L54.5898-18.5059C54.5898-15.8203 56.4453-13.9648 59.082-13.9648C61.8164-13.9648 63.7207-15.8203 63.7207-18.5059L63.7207-30.7129L75.8789-30.7129C78.5645-30.7129 80.4688-32.5684 80.4688-35.2051C80.4688-37.9395 78.5645-39.8438 75.8789-39.8438L63.7207-39.8438L63.7207-52.002C63.7207-54.7363 61.8164-56.5918 59.082-56.5918C56.4453-56.5918 54.5898-54.6875 54.5898-52.002L54.5898-39.8438L42.4316-39.8438C39.6973-39.8438 37.793-37.9395 37.793-35.2051Z"></path>
    </g>
</svg>