<svg viewBox="0 0 104.297607421875 74.9521484375" version="1.1" xmlns="http://www.w3.org/2000/svg" class=" glyph-box"
     height="25" width="25" fill="white">
    <g transform="matrix(1 0 0 1 -12.451162109374991 72.7060546875)">
        <path d="M16.6504-56.1035L24.7559-56.1035C27.8809-56.1035 29.0039-57.2266 29.0039-60.3027L29.0039-68.4082C29.0039-71.5332 27.8809-72.6562 24.7559-72.6562L16.6504-72.6562C13.5742-72.6562 12.4512-71.5332 12.4512-68.4082L12.4512-60.3027C12.4512-57.2266 13.5742-56.1035 16.6504-56.1035ZM45.8496-56.1035L53.9551-56.1035C57.0312-56.1035 58.1543-57.2266 58.1543-60.3027L58.1543-68.4082C58.1543-71.5332 57.0312-72.6562 53.9551-72.6562L45.8496-72.6562C42.7246-72.6562 41.6016-71.5332 41.6016-68.4082L41.6016-60.3027C41.6016-57.2266 42.7246-56.1035 45.8496-56.1035ZM75-56.1035L83.1055-56.1035C86.1816-56.1035 87.3047-57.2266 87.3047-60.3027L87.3047-68.4082C87.3047-71.5332 86.1816-72.6562 83.1055-72.6562L75-72.6562C71.9238-72.6562 70.8008-71.5332 70.8008-68.4082L70.8008-60.3027C70.8008-57.2266 71.9238-56.1035 75-56.1035ZM104.15-56.1035L112.256-56.1035C115.381-56.1035 116.504-57.2266 116.504-60.3027L116.504-68.4082C116.504-71.5332 115.381-72.6562 112.256-72.6562L104.15-72.6562C101.074-72.6562 99.9512-71.5332 99.9512-68.4082L99.9512-60.3027C99.9512-57.2266 101.074-56.1035 104.15-56.1035ZM16.8945-26.9531L25-26.9531C28.125-26.9531 29.248-28.0762 29.248-31.1523L29.248-39.2578C29.248-42.334 28.125-43.457 25-43.457L16.8945-43.457C13.8184-43.457 12.6953-42.334 12.6953-39.2578L12.6953-31.1523C12.6953-28.0762 13.8184-26.9531 16.8945-26.9531ZM46.0938-26.9531L54.1992-26.9531C57.2754-26.9531 58.3984-28.0762 58.3984-31.1523L58.3984-39.2578C58.3984-42.334 57.2754-43.457 54.1992-43.457L46.0938-43.457C42.9688-43.457 41.8457-42.334 41.8457-39.2578L41.8457-31.1523C41.8457-28.0762 42.9688-26.9531 46.0938-26.9531ZM75.2441-26.9531L83.3496-26.9531C86.4258-26.9531 87.5488-28.0762 87.5488-31.1523L87.5488-39.2578C87.5488-42.334 86.4258-43.457 83.3496-43.457L75.2441-43.457C72.168-43.457 71.0449-42.334 71.0449-39.2578L71.0449-31.1523C71.0449-28.0762 72.168-26.9531 75.2441-26.9531ZM104.443-26.9531L112.5-26.9531C115.625-26.9531 116.748-28.0762 116.748-31.1523L116.748-39.2578C116.748-42.334 115.625-43.457 112.5-43.457L104.443-43.457C101.318-43.457 100.195-42.334 100.195-39.2578L100.195-31.1523C100.195-28.0762 101.318-26.9531 104.443-26.9531ZM16.8945 2.24609L25 2.24609C28.125 2.24609 29.248 1.12305 29.248-2.00195L29.248-10.0586C29.248-13.1836 28.125-14.3066 25-14.3066L16.8945-14.3066C13.8184-14.3066 12.6953-13.1836 12.6953-10.0586L12.6953-2.00195C12.6953 1.12305 13.8184 2.24609 16.8945 2.24609ZM46.0938 2.24609L54.1992 2.24609C57.2754 2.24609 58.3984 1.12305 58.3984-2.00195L58.3984-10.0586C58.3984-13.1836 57.2754-14.3066 54.1992-14.3066L46.0938-14.3066C42.9688-14.3066 41.8457-13.1836 41.8457-10.0586L41.8457-2.00195C41.8457 1.12305 42.9688 2.24609 46.0938 2.24609ZM75.2441 2.24609L83.3496 2.24609C86.4258 2.24609 87.5488 1.12305 87.5488-2.00195L87.5488-10.0586C87.5488-13.1836 86.4258-14.3066 83.3496-14.3066L75.2441-14.3066C72.168-14.3066 71.0449-13.1836 71.0449-10.0586L71.0449-2.00195C71.0449 1.12305 72.168 2.24609 75.2441 2.24609ZM104.443 2.24609L112.5 2.24609C115.625 2.24609 116.748 1.12305 116.748-2.00195L116.748-10.0586C116.748-13.1836 115.625-14.3066 112.5-14.3066L104.443-14.3066C101.318-14.3066 100.195-13.1836 100.195-10.0586L100.195-2.00195C100.195 1.12305 101.318 2.24609 104.443 2.24609Z"></path>
    </g>
</svg>