<svg viewBox="0 0 70.8070068359375 89.5009765625" version="1.1" xmlns="http://www.w3.org/2000/svg" class=" glyph-box"
     aria-hidden="true" style="height: 19.0536px; width: 15.0739px;" fill="#707070">
    <g transform="matrix(1 0 0 1 -1.5074365234377183 79.98046875)">
        <path d="M72.3145-35.2539C72.3145-37.6953 71.4355-39.6973 69.4336-41.6016L32.5195-77.7832C31.0547-79.248 29.248-79.9805 27.0996-79.9805C22.8027-79.9805 19.2871-76.4648 19.2871-72.2168C19.2871-70.0684 20.166-68.0664 21.7773-66.5039L53.9551-35.3027L21.7773-4.05273C20.166-2.44141 19.2871-0.488281 19.2871 1.70898C19.2871 6.00586 22.8027 9.47266 27.0996 9.47266C29.248 9.47266 31.0547 8.74023 32.5195 7.27539L69.4336-28.9062C71.4844-30.8594 72.3145-32.8613 72.3145-35.2539Z"></path>
    </g>
</svg>